<?xml version="1.0" encoding="UTF-8"?>
<svg version="1.1" xmlns="http://www.w3.org/2000/svg" width="484" height="494">
<path d="M0 0 C0.89563671 -0.00453111 1.79127343 -0.00906223 2.71405065 -0.01373065 C5.68599776 -0.02629208 8.65775967 -0.02475964 11.62973022 -0.02310181 C13.77270745 -0.02909229 15.91568252 -0.03589903 18.05865479 -0.04345703 C23.86061639 -0.06107311 29.66251895 -0.06581061 35.46450472 -0.0670886 C39.09596521 -0.06851347 42.72741085 -0.07278946 46.35886765 -0.07808304 C59.04682106 -0.09657013 71.73473254 -0.10475547 84.42269897 -0.10317993 C96.21852696 -0.10197952 108.01417169 -0.12306578 119.80995333 -0.15466726 C129.9623467 -0.18088919 140.11468043 -0.19154472 150.26710737 -0.19026911 C156.31945012 -0.18976114 162.37162996 -0.19535279 168.42393875 -0.21662521 C174.12204861 -0.23610694 179.81984184 -0.23606443 185.51796341 -0.22159195 C187.59790514 -0.21951491 189.67786722 -0.22413804 191.75777435 -0.23631287 C206.94782616 -0.31940115 221.35589143 0.68410812 234.99057007 8.14242554 C235.64670288 8.48612183 236.30283569 8.82981812 236.97885132 9.18392944 C247.65517501 14.86759485 247.65517501 14.86759485 251.55307007 18.26742554 C251.55307007 18.92742554 251.55307007 19.58742554 251.55307007 20.26742554 C252.21307007 20.26742554 252.87307007 20.26742554 253.55307007 20.26742554 C253.55307007 20.92742554 253.55307007 21.58742554 253.55307007 22.26742554 C254.14732788 22.54070679 254.74158569 22.81398804 255.35385132 23.09555054 C267.33001715 29.47716643 274.86964726 45.94287674 278.96713257 58.33334351 C285.73730752 80.68056265 283.53693303 104.49716444 272.57601929 125.1043396 C267.57807936 133.99748806 261.39596167 141.6981659 253.55307007 148.26742554 C252.89307007 148.26742554 252.23307007 148.26742554 251.55307007 148.26742554 C251.55307007 148.92742554 251.55307007 149.58742554 251.55307007 150.26742554 C234.57474124 166.41872975 211.07033037 169.43660244 188.81063843 169.39682007 C187.58057383 169.3985384 186.35050922 169.40025673 185.08316994 169.40202713 C181.72293168 169.40558948 178.36275368 169.40468752 175.00251889 169.40159941 C172.15111067 169.39975934 169.29970937 169.40156053 166.44830149 169.40338814 C157.2533202 169.40924343 148.05836452 169.40326529 138.86338711 169.39455986 C136.49387817 169.39242851 134.12436925 169.39065887 131.75485992 169.38902283 C110.33596741 169.37422993 88.91717272 169.3391649 67.49835968 169.27857971 C64.96916001 169.27142913 62.4399598 169.26446442 59.91075897 169.25773621 C47.75796198 169.22505367 35.60579827 169.17449754 23.45349121 169.05789185 C20.4722588 169.02946162 17.49116819 169.00932137 14.50982666 168.99697876 C-19.400748 168.84125497 -19.400748 168.84125497 -34.94692993 160.39242554 C-35.60564087 160.04872925 -36.26435181 159.70503296 -36.94302368 159.35092163 C-41.82237204 156.74819992 -46.27263705 153.91993181 -50.44692993 150.26742554 C-50.44692993 149.60742554 -50.44692993 148.94742554 -50.44692993 148.26742554 C-51.00896118 148.02637085 -51.57099243 147.78531616 -52.15005493 147.53695679 C-61.57139864 142.32958144 -67.37001704 132.37044842 -72.44692993 123.26742554 C-73.06181274 122.25615601 -73.06181274 122.25615601 -73.68911743 121.22445679 C-83.77039055 103.52361677 -83.43065308 79.45746822 -78.44692993 60.26742554 C-73.83818786 44.64763052 -64.94774094 30.73819032 -52.44692993 20.26742554 C-51.78692993 20.26742554 -51.12692993 20.26742554 -50.44692993 20.26742554 C-50.44692993 19.60742554 -50.44692993 18.94742554 -50.44692993 18.26742554 C-35.85502271 6.61067206 -18.75259097 -0.07118015 0 0 Z M11.55307007 61.26742554 C11.55307007 61.92742554 11.55307007 62.58742554 11.55307007 63.26742554 C10.89307007 63.26742554 10.23307007 63.26742554 9.55307007 63.26742554 C9.55307007 63.92742554 9.55307007 64.58742554 9.55307007 65.26742554 C8.89307007 65.26742554 8.23307007 65.26742554 7.55307007 65.26742554 C7.55307007 65.92742554 7.55307007 66.58742554 7.55307007 67.26742554 C6.89307007 67.26742554 6.23307007 67.26742554 5.55307007 67.26742554 C0.92729874 75.65989638 -1.44557306 83.33596108 1.28744507 92.81430054 C3.26885828 97.65414593 5.9107183 101.5292224 9.55307007 105.26742554 C10.21307007 105.26742554 10.87307007 105.26742554 11.55307007 105.26742554 C11.55307007 105.92742554 11.55307007 106.58742554 11.55307007 107.26742554 C18.97007528 111.66268788 26.05798271 112.24144856 34.55307007 111.26742554 C41.5347981 109.37046085 46.77389689 104.24248535 50.84213257 98.42367554 C54.82647376 91.42958021 55.47596686 83.66599072 53.36557007 75.95492554 C51.95176737 71.88862146 50.27546598 68.60455601 47.55307007 65.26742554 C46.89307007 65.26742554 46.23307007 65.26742554 45.55307007 65.26742554 C45.55307007 64.60742554 45.55307007 63.94742554 45.55307007 63.26742554 C34.08367804 56.32379361 23.53839165 54.33018514 11.55307007 61.26742554 Z M153.05697632 66.40414429 C147.68272322 73.06263449 145.69425689 79.70996565 146.55307007 88.26742554 C147.85702541 93.92429063 149.93933113 98.72110881 153.55307007 103.26742554 C154.21307007 103.26742554 154.87307007 103.26742554 155.55307007 103.26742554 C155.55307007 103.92742554 155.55307007 104.58742554 155.55307007 105.26742554 C157.01111176 106.08044878 158.46951322 106.89282685 159.92807007 107.70492554 C160.74017944 108.15738647 161.55228882 108.60984741 162.38900757 109.07601929 C168.16506954 112.2559812 174.05090445 111.80155743 180.55307007 111.26742554 C184.69167967 109.95427272 187.95057081 107.66909171 191.55307007 105.26742554 C191.55307007 104.60742554 191.55307007 103.94742554 191.55307007 103.26742554 C192.21307007 103.26742554 192.87307007 103.26742554 193.55307007 103.26742554 C199.03012811 96.35088429 201.49394439 89.03926921 200.55307007 80.26742554 C199.27242256 74.60266356 197.1672945 69.81435305 193.55307007 65.26742554 C192.89307007 65.26742554 192.23307007 65.26742554 191.55307007 65.26742554 C191.55307007 64.60742554 191.55307007 63.94742554 191.55307007 63.26742554 C189.95016477 62.45243992 188.34569729 61.64052627 186.74057007 60.82992554 C185.84724976 60.3774646 184.95392944 59.92500366 184.03353882 59.45883179 C172.7466975 54.03759304 161.25403497 57.52241252 153.05697632 66.40414429 Z " fill="#324DFE" transform="translate(141.44692993164063,192.73257446289063)"/>
<path d="M0 0 C2.17309294 -0.00599408 4.34618377 -0.01280164 6.51927185 -0.02035522 C12.39170425 -0.03793687 18.26407827 -0.0427074 24.13653445 -0.0439868 C27.81646811 -0.04541387 31.49638719 -0.04969406 35.17631721 -0.05498123 C48.04626523 -0.0734585 60.91617197 -0.08165509 73.78613281 -0.08007812 C85.73016089 -0.07887869 97.6740077 -0.09994826 109.61798996 -0.13156545 C119.91406068 -0.15783648 130.21007261 -0.16844084 140.50617653 -0.16716731 C146.63691314 -0.16666067 152.76748862 -0.17217663 158.89819145 -0.19352341 C164.6743318 -0.21308805 170.45016038 -0.21290737 176.22631264 -0.19849014 C178.32792499 -0.19642306 180.42955781 -0.20097491 182.53113556 -0.21321106 C205.31076615 -0.33708746 227.39876793 2.79489707 247.76782227 13.44287109 C250.11707213 14.6680036 252.49011749 15.84861299 254.88500977 16.98193359 C263.24562714 20.94609871 270.09413931 25.58460788 277.31079102 31.29052734 C278.30079102 31.95052734 279.29079102 32.61052734 280.31079102 33.29052734 C280.31079102 33.95052734 280.31079102 34.61052734 280.31079102 35.29052734 C280.84188477 35.49677734 281.37297852 35.70302734 281.92016602 35.91552734 C285.31852538 37.87013926 287.8213503 40.51176451 290.56079102 43.29052734 C291.11508789 43.83708984 291.66938477 44.38365234 292.24047852 44.94677734 C296.31079102 49.03714064 296.31079102 49.03714064 296.31079102 51.29052734 C296.97079102 51.29052734 297.63079102 51.29052734 298.31079102 51.29052734 C300.11639144 53.46089553 301.78765105 55.62919993 303.43579102 57.91552734 C304.17176514 58.93018066 304.17176514 58.93018066 304.92260742 59.96533203 C327.45311775 91.53890013 335.88187847 129.96818873 330.62719727 168.33740234 C329.80901999 173.07300879 328.65102563 177.67827166 327.31079102 182.29052734 C326.99730713 183.42433838 326.99730713 183.42433838 326.67749023 184.58105469 C323.72782999 195.05621517 319.48046483 204.42977284 314.16625977 213.91162109 C312.26027289 217.1429994 312.26027289 217.1429994 311.31079102 220.29052734 C310.65079102 220.29052734 309.99079102 220.29052734 309.31079102 220.29052734 C308.65079102 222.27052734 307.99079102 224.25052734 307.31079102 226.29052734 C306.65079102 226.29052734 305.99079102 226.29052734 305.31079102 226.29052734 C305.09293945 226.97759766 304.87508789 227.66466797 304.65063477 228.37255859 C302.92702768 232.12630346 300.57746182 234.8842654 297.87329102 237.97802734 C297.34558105 238.58727051 296.81787109 239.19651367 296.27416992 239.82421875 C291.37138946 245.39005024 286.17597215 250.72871979 280.31079102 255.29052734 C279.65079102 255.29052734 278.99079102 255.29052734 278.31079102 255.29052734 C278.31079102 255.95052734 278.31079102 256.61052734 278.31079102 257.29052734 C275.94599173 259.02471349 273.58432541 260.64151866 271.12329102 262.22802734 C270.44975586 262.67082031 269.7762207 263.11361328 269.08227539 263.56982422 C267.1668675 264.82371563 265.24081629 266.05929533 263.31079102 267.29052734 C261.9244043 268.18964844 261.9244043 268.18964844 260.51000977 269.10693359 C258.31079102 270.29052734 258.31079102 270.29052734 255.31079102 270.29052734 C255.31079102 270.95052734 255.31079102 271.61052734 255.31079102 272.29052734 C231.0089901 282.78413968 209.52212718 288.66810605 182.92016602 288.51318359 C182.04431665 288.50987156 181.16846729 288.50655952 180.26607704 288.50314713 C172.01838968 288.47028592 163.77152288 288.40721641 155.52514648 288.25317383 C133.57499028 287.86617325 115.65878974 288.11867097 95.96746826 298.86871338 C89.0543758 302.56849717 81.75532966 305.55664779 74.56079102 308.66552734 C69.43284492 310.89140072 64.35818803 313.19815769 59.31079102 315.60302734 C52.7365327 318.72535221 46.03840064 321.51666294 39.31079102 324.29052734 C30.83817823 327.78570886 22.51076661 331.4498192 14.23364258 335.38671875 C7.9298457 338.34972739 1.55513011 341.1617341 -4.8059082 343.99902344 C-7.99165508 345.42600066 -11.17023791 346.86839842 -14.34936523 348.31005859 C-16.60826281 349.32486469 -18.86737462 350.33919406 -21.12670898 351.35302734 C-22.19904785 351.84254883 -23.27138672 352.33207031 -24.3762207 352.83642578 C-25.89046631 353.5117334 -25.89046631 353.5117334 -27.43530273 354.20068359 C-28.77612915 354.80601929 -28.77612915 354.80601929 -30.14404297 355.42358398 C-32.68920898 356.29052734 -32.68920898 356.29052734 -37.68920898 356.29052734 C-37.68920898 332.86052734 -37.68920898 309.43052734 -37.68920898 285.29052734 C-44.61920898 283.80552734 -44.61920898 283.80552734 -51.68920898 282.29052734 C-81.69854942 272.64771558 -107.14162579 252.40633724 -125.68920898 227.29052734 C-126.27831055 226.56607422 -126.86741211 225.84162109 -127.47436523 225.09521484 C-128.68920898 223.29052734 -128.68920898 223.29052734 -128.68920898 220.29052734 C-129.34920898 220.29052734 -130.00920898 220.29052734 -130.68920898 220.29052734 C-138.347609 205.49854152 -145.21619729 190.69043396 -148.68920898 174.29052734 C-148.86726074 173.46077393 -149.0453125 172.63102051 -149.22875977 171.77612305 C-150.94707773 162.80447631 -151.08871072 153.95382354 -151.06420898 144.85302734 C-151.06333282 144.05816925 -151.06245667 143.26331116 -151.06155396 142.44436646 C-150.96512082 115.88588126 -144.05625041 93.66725198 -131.68920898 70.29052734 C-131.35920898 69.63052734 -131.02920898 68.97052734 -130.68920898 68.29052734 C-130.02920898 68.29052734 -129.36920898 68.29052734 -128.68920898 68.29052734 C-128.02920898 66.31052734 -127.36920898 64.33052734 -126.68920898 62.29052734 C-126.02920898 62.29052734 -125.36920898 62.29052734 -124.68920898 62.29052734 C-124.42108398 61.54802734 -124.15295898 60.80552734 -123.87670898 60.04052734 C-122.73644148 57.39990786 -121.59540593 55.4349989 -119.68920898 53.29052734 C-119.02920898 53.29052734 -118.36920898 53.29052734 -117.68920898 53.29052734 C-117.44557617 52.73107422 -117.20194336 52.17162109 -116.95092773 51.59521484 C-113.01536383 44.4064139 -106.1135115 38.2726395 -99.68920898 33.29052734 C-99.02920898 33.29052734 -98.36920898 33.29052734 -97.68920898 33.29052734 C-97.68920898 32.63052734 -97.68920898 31.97052734 -97.68920898 31.29052734 C-95.47117608 29.63306287 -93.26012618 28.10455062 -90.93920898 26.60302734 C-90.25616699 26.15677002 -89.573125 25.7105127 -88.86938477 25.25073242 C-86.81656036 23.9189572 -84.75521418 22.60174384 -82.68920898 21.29052734 C-81.62959961 20.61763672 -80.56999023 19.94474609 -79.47827148 19.25146484 C-73.46266266 15.59049111 -67.42005805 12.81595337 -60.79467773 10.43115234 C-58.5935257 9.62267889 -56.42278779 8.72912413 -54.27905273 7.77880859 C-50.59503994 6.25148664 -46.92821303 5.16510617 -43.06420898 4.22802734 C-41.79319336 3.90705078 -40.52217773 3.58607422 -39.21264648 3.25537109 C-37.70724026 2.92267517 -36.19916167 2.60193925 -34.68920898 2.29052734 C-33.85662536 2.11842932 -33.02404173 1.94633129 -32.16622829 1.76901817 C-21.46962509 -0.14858801 -10.83384499 -0.00599238 0 0 Z M-62.68920898 51.29052734 C-62.68920898 51.95052734 -62.68920898 52.61052734 -62.68920898 53.29052734 C-63.39045898 53.53802734 -64.09170898 53.78552734 -64.81420898 54.04052734 C-68.08435446 55.46232973 -70.83033098 57.16299023 -73.68920898 59.29052734 C-73.68920898 59.95052734 -73.68920898 60.61052734 -73.68920898 61.29052734 C-74.28306396 61.56131104 -74.87691895 61.83209473 -75.48876953 62.11108398 C-85.23066948 67.33277694 -93.63446361 78.78011753 -98.68920898 88.29052734 C-99.01614746 88.90186523 -99.34308594 89.51320312 -99.67993164 90.14306641 C-113.03061215 115.31933817 -119.1877318 143.28964803 -111.06518555 171.31445312 C-106.78905429 185.24023159 -100.52106914 199.61985499 -91.68920898 211.29052734 C-91.02920898 211.29052734 -90.36920898 211.29052734 -89.68920898 211.29052734 C-89.48295898 211.82162109 -89.27670898 212.35271484 -89.06420898 212.89990234 C-87.10959706 216.2982617 -84.46797182 218.80108663 -81.68920898 221.54052734 C-80.86936523 222.37197266 -80.86936523 222.37197266 -80.03295898 223.22021484 C-77.3632013 226.28268509 -77.3632013 226.28268509 -73.68920898 227.29052734 C-73.68920898 227.95052734 -73.68920898 228.61052734 -73.68920898 229.29052734 C-71.65658394 230.81423427 -69.64600924 232.18945864 -67.50170898 233.54052734 C-66.86966553 233.94166748 -66.23762207 234.34280762 -65.58642578 234.75610352 C-59.53485821 238.51731824 -53.26963438 241.5577647 -46.68920898 244.29052734 C-45.81135742 244.66951172 -44.93350586 245.04849609 -44.02905273 245.43896484 C-24.74534844 253.17571498 -3.03790542 252.45630548 17.38793945 252.34399414 C19.35109819 252.33710637 21.31425852 252.3306597 23.27742004 252.32461548 C28.56019787 252.30685905 33.84292201 252.28228312 39.1256628 252.25585532 C43.5516961 252.23421322 47.97774039 252.21563277 52.4037869 252.19692355 C62.84758849 252.15258948 73.29135038 252.1023294 83.73510742 252.04858398 C94.48244125 251.99340425 105.22978125 251.94942913 115.97718596 251.91073292 C125.23710483 251.87693078 134.49697018 251.83559808 143.75683045 251.78840762 C149.27344582 251.76040307 154.79003471 251.73532127 160.30669403 251.71774864 C165.49103378 251.70095484 170.67524358 251.67473123 175.85950279 251.64143753 C177.75405243 251.6308282 179.64862383 251.62348526 181.54319954 251.61977196 C191.31955325 251.59861876 200.7129432 251.40834356 210.31079102 249.29052734 C211.04309307 249.13197108 211.77539513 248.97341482 212.52988815 248.81005383 C227.59745588 245.2860888 245.08288084 238.23948323 256.31079102 227.29052734 C256.31079102 226.63052734 256.31079102 225.97052734 256.31079102 225.29052734 C256.97079102 225.29052734 257.63079102 225.29052734 258.31079102 225.29052734 C258.31079102 224.63052734 258.31079102 223.97052734 258.31079102 223.29052734 C258.97079102 223.29052734 259.63079102 223.29052734 260.31079102 223.29052734 C260.31079102 222.63052734 260.31079102 221.97052734 260.31079102 221.29052734 C260.97079102 221.29052734 261.63079102 221.29052734 262.31079102 221.29052734 C262.31079102 220.63052734 262.31079102 219.97052734 262.31079102 219.29052734 C263.63079102 218.63052734 264.95079102 217.97052734 266.31079102 217.29052734 C266.31079102 216.63052734 266.31079102 215.97052734 266.31079102 215.29052734 C266.97079102 215.29052734 267.63079102 215.29052734 268.31079102 215.29052734 C269.95631471 213.30549969 271.45559849 211.33249794 272.93579102 209.22802734 C273.60130981 208.28443359 273.60130981 208.28443359 274.28027344 207.32177734 C291.27598283 182.71591246 298.33087225 153.89726122 293.06079102 124.22802734 C287.79401147 97.23929026 273.1391047 73.92313211 251.31079102 57.29052734 C250.17963867 56.38367188 250.17963867 56.38367188 249.02563477 55.45849609 C226.66806889 38.46981396 198.95358369 35.9687375 171.90820312 36.03173828 C169.92182793 36.02902084 167.93545374 36.02545573 165.94908142 36.02111816 C160.60618339 36.01208194 155.2633635 36.01550169 149.92046428 36.02187634 C144.2985825 36.02698143 138.6767069 36.02223252 133.05482483 36.019104 C123.61954563 36.0154777 114.18429786 36.02022857 104.74902344 36.02978516 C93.87729688 36.04067026 83.00564536 36.03713828 72.13392061 36.02613235 C62.75845195 36.01702504 53.38300574 36.01579088 44.00753409 36.02100968 C38.42595381 36.02411011 32.84440868 36.02459215 27.26283073 36.01793671 C22.0136588 36.01211341 16.76458262 36.0162503 11.51542091 36.02772522 C9.60157301 36.03034523 7.68771689 36.0296529 5.77387238 36.02519989 C-19.00264968 35.97291391 -40.44068018 40.01570899 -62.68920898 51.29052734 Z " fill="#324DFE" transform="translate(151.689208984375,132.70947265625)"/>
<path d="M0 0 C9.10222618 6.50622584 14.89957634 15.94766987 16.90625 26.984375 C18.27783208 37.72843463 16.17773362 48.09886968 10.1875 57.1875 C9.5275 57.1875 8.8675 57.1875 8.1875 57.1875 C7.81625 58.05375 7.81625 58.05375 7.4375 58.9375 C6.00450012 61.51689979 4.40325324 63.24871592 2.1875 65.1875 C1.5275 65.1875 0.8675 65.1875 0.1875 65.1875 C0.1875 65.8475 0.1875 66.5075 0.1875 67.1875 C-2.8125 69.1875 -2.8125 69.1875 -5.8125 69.1875 C-7.05807202 72.92421606 -6.89813128 76.36313796 -6.83984375 80.25 C-6.82720044 81.86718538 -6.81483927 83.484373 -6.80273438 85.1015625 C-6.777885 87.64948458 -6.74987195 90.19729125 -6.71655273 92.74511719 C-6.6863851 95.20508572 -6.668589 97.66490573 -6.65234375 100.125 C-6.63888412 100.88756104 -6.6254245 101.65012207 -6.61155701 102.43579102 C-6.59346177 106.24274916 -6.64645544 107.93843317 -8.8125 111.1875 C-11.76171875 111.54394531 -11.76171875 111.54394531 -15.5 111.515625 C-16.48746216 111.51281525 -16.48746216 111.51281525 -17.49487305 111.50994873 C-18.88693301 111.5032252 -20.27897399 111.48930449 -21.67089844 111.46875 C-23.80421462 111.4376209 -25.93679182 111.4277823 -28.0703125 111.421875 C-38.48509077 111.35120461 -38.48509077 111.35120461 -40.8125 110.1875 C-40.78724243 108.46249268 -40.78724243 108.46249268 -40.76147461 106.70263672 C-40.71068782 102.41938182 -40.71924292 98.13791165 -40.74536133 93.85449219 C-40.748436 92.003863 -40.7356001 90.15313414 -40.70629883 88.30273438 C-40.05494518 77.85266245 -40.05494518 77.85266245 -43.88720703 68.67675781 C-46.15252377 67.21626554 -48.33803206 66.2240803 -50.8125 65.1875 C-50.8125 64.5275 -50.8125 63.8675 -50.8125 63.1875 C-51.4725 63.1875 -52.1325 63.1875 -52.8125 63.1875 C-52.8125 62.5275 -52.8125 61.8675 -52.8125 61.1875 C-53.4725 61.1875 -54.1325 61.1875 -54.8125 61.1875 C-62.06359369 53.16986212 -65.64121552 41.71755063 -65.203125 31.015625 C-64.06773269 22.7953847 -61.33343544 15.13036514 -56.8125 8.1875 C-56.1525 8.1875 -55.4925 8.1875 -54.8125 8.1875 C-54.8125 7.5275 -54.8125 6.8675 -54.8125 6.1875 C-54.1525 6.1875 -53.4925 6.1875 -52.8125 6.1875 C-52.8125 5.5275 -52.8125 4.8675 -52.8125 4.1875 C-52.1525 4.1875 -51.4925 4.1875 -50.8125 4.1875 C-50.8125 3.5275 -50.8125 2.8675 -50.8125 2.1875 C-35.21863391 -9.49976081 -16.52858646 -10.24113413 0 0 Z " fill="#324DFE" transform="translate(280.8125,8.8125)"/>
</svg>
